<svg xmlns="http://www.w3.org/2000/svg" width="24" height="24" viewBox="0 0 24 24" id="discord">
  <g id="social/logos/discord" fill="none" fill-rule="evenodd" stroke="none" stroke-linecap="round" stroke-linejoin="round" stroke-width="1">
    <path id="line" stroke="#000" d="M4.5,6.5 L4.64064778,6.41572522 C5.06760204,6.1747449 6.44642857,5.5 8.5,5.5 L9.5,6.5 L13.5,6.5 L14.5,5.5 C17,5.5 18.5,6.5 18.5,6.5 C20,9 21.5,13 21.5,17 C20.5,18 17.5,19.5 16,19.5 L15,17.5 C13,18 10,18 8,17.5 L7,19.5 C5.5,19.5 2.5,18 1.5,17 C1.5,13 3,9 4.5,6.5 Z M6.5,17 L8,17.5 M16.5,17 L15,17.5 M8,14.5 C8.82842712,14.5 9.5,13.8284271 9.5,13 C9.5,12.1715729 8.82842712,11.5 8,11.5 C7.17157288,11.5 6.5,12.1715729 6.5,13 C6.5,13.8284271 7.17157288,14.5 8,14.5 Z M15,14.5 C15.8284271,14.5 16.5,13.8284271 16.5,13 C16.5,12.1715729 15.8284271,11.5 15,11.5 C14.1715729,11.5 13.5,12.1715729 13.5,13 C13.5,13.8284271 14.1715729,14.5 15,14.5 Z"></path>
  </g>
</svg>
